<?xml version="1.0" standalone="no"?>
<!DOCTYPE svg PUBLIC "-//W3C//DTD SVG 1.1//EN" "http://www.w3.org/Graphics/SVG/1.1/DTD/svg11.dtd" >
<svg xmlns="http://www.w3.org/2000/svg">
<metadata>
Created by FontForge 20120731 at Tue Jun 27 21:08:27 2017
 By admin
</metadata>
<defs>
<font id="iconfont" horiz-adv-x="1024" >
  <font-face 
    font-family="iconfont"
    font-weight="500"
    font-stretch="normal"
    units-per-em="1024"
    panose-1="2 0 6 3 0 0 0 0 0 0"
    ascent="896"
    descent="-128"
    x-height="792"
    bbox="0 -221 1582 928"
    underline-thickness="0"
    underline-position="0"
    unicode-range="U+0078-ED1B"
  />
<missing-glyph 
 />
    <glyph glyph-name=".notdef" 
 />
    <glyph glyph-name=".notdef" 
 />
    <glyph glyph-name=".null" horiz-adv-x="0" 
 />
    <glyph glyph-name="nonmarkingreturn" horiz-adv-x="341" 
 />
    <glyph glyph-name="x" unicode="x" horiz-adv-x="1001" 
d="M281 543q-27 -1 -53 -1h-83q-18 0 -36.5 -6t-32.5 -18.5t-23 -32t-9 -45.5v-76h912v41q0 16 -0.5 30t-0.5 18q0 13 -5 29t-17 29.5t-31.5 22.5t-49.5 9h-133v-97h-438v97zM955 310v-52q0 -23 0.5 -52t0.5 -58t-10.5 -47.5t-26 -30t-33 -16t-31.5 -4.5q-14 -1 -29.5 -0.5
t-29.5 0.5h-32l-45 128h-439l-44 -128h-29h-34q-20 0 -45 1q-25 0 -41 9.5t-25.5 23t-13.5 29.5t-4 30v167h911zM163 247q-12 0 -21 -8.5t-9 -21.5t9 -21.5t21 -8.5q13 0 22 8.5t9 21.5t-9 21.5t-22 8.5zM316 123q-8 -26 -14 -48q-5 -19 -10.5 -37t-7.5 -25t-3 -15t1 -14.5
t9.5 -10.5t21.5 -4h37h67h81h80h64h36q23 0 34 12t2 38q-5 13 -9.5 30.5t-9.5 34.5q-5 19 -11 39h-368zM336 498v228q0 11 2.5 23t10 21.5t20.5 15.5t34 6h188q31 0 51.5 -14.5t20.5 -52.5v-227h-327z" />
    <glyph glyph-name="cha" unicode="&#xe605;" 
d="M891 575q4 -4 4 -9.5t-4 -9.5l-257 -257l255 -255q4 -4 4 -9.5t-4 -9.5l-103 -104q-4 -4 -9.5 -4t-9.5 4l-255 256l-254 -254q-4 -4 -9.5 -4t-9.5 4l-104 103q-4 4 -4 9.5t4 9.5l254 254l-255 255q-4 4 -4 9.5t4 9.5l103 104q4 4 9.5 4t9.5 -4l256 -256l256 257
q4 4 9.5 4t9.5 -4z" />
    <glyph glyph-name="caidan" unicode="&#xe606;" 
d="M872 675q28 0 47.5 -19.5t19.5 -47.5v-51q0 -28 -19.5 -47.5t-47.5 -19.5h-742q-28 0 -47.5 19.5t-19.5 47.5v51q0 28 19.5 47.5t47.5 19.5h742zM872 362q28 0 47.5 -19.5t19.5 -47.5v-51q0 -28 -19.5 -47.5t-47.5 -19.5h-742q-28 0 -47.5 19.5t-19.5 47.5v51
q0 28 19.5 47.5t47.5 19.5h742zM872 49q28 0 47.5 -19.5t19.5 -47.5v-51q0 -28 -19.5 -47.5t-47.5 -19.5h-742q-28 0 -47.5 19.5t-19.5 47.5v51q0 28 19.5 47.5t47.5 19.5h742z" />
    <glyph glyph-name="caret" unicode="&#xe658;" 
d="M243 430l285 -285l285 285l-58 58l-227 -227l-227 227z" />
    <glyph glyph-name="daoru" unicode="&#xe642;" 
d="M735 437q2 2 1 5t-5 3h-137v225q0 6 -4.5 10.5t-10.5 4.5h-134q-6 0 -10.5 -4.5t-4.5 -10.5v-225h-137q-4 0 -5 -3t1 -5l213 -197q4 -4 10 -4t10 4l213 197v0zM946 187l-133 102q-14 11 -31 11h-77l127 -128l-128 1l-64 -93h-257l-63 93l-127 -1l128 128h-79
q-17 0 -31 -11l-133 -102q-14 -11 -9 -28l54 -162q2 -7 8.5 -12t13.5 -5h735q7 0 13.5 5t8.5 12l53 162q5 17 -9 28z" />
    <glyph glyph-name="daochu" unicode="&#xe643;" 
d="M289 484q-2 -2 -1 -5.5t5 -3.5h137v-224q0 -7 4.5 -11t10.5 -4h134q6 0 10.5 4t4.5 11v224h137q4 0 5 3.5t-1 5.5l-213 197q-4 4 -10 4t-10 -4l-213 -197v0zM945 186l-133 103q-14 11 -31 11h-77l128 -128h-128l-65 -93h-257l-62 93h-128l128 128h-79q-17 0 -31 -11
l-133 -103q-14 -10 -9 -27l53 -163q3 -6 9.5 -11t13.5 -5h734q8 0 14.5 5t8.5 11l53 163q5 17 -9 27z" />
    <glyph glyph-name="del-round" unicode="&#xe649;" 
d="M512 736q-91 0 -174 -35.5t-143 -95.5t-95.5 -143t-35.5 -174t35.5 -174t95.5 -143t143 -95t174 -35t173.5 35t142.5 95t95.5 143t35.5 174t-35.5 174t-95.5 143t-142.5 95.5t-173.5 35.5zM703 92q0 -1 -1 -2v-16q0 -9 -6 -15t-14 -6h-340q-8 0 -14 5t-7 13v3v336
q0 6 4.5 11t11.5 5h26q7 0 11.5 -5t4.5 -11v-298h265v296q0 8 5 13t13 5h23q7 0 12.5 -5t5.5 -13v-316zM441 154v234q0 8 4 14t9 6h12q6 0 9.5 -6t3.5 -14v-234q0 -8 -3.5 -13.5t-9.5 -5.5h-12q-5 0 -9 5.5t-4 13.5zM544 154v234q0 8 3.5 14t9.5 6h12q6 0 9.5 -6t3.5 -14
v-234q0 -8 -3.5 -13.5t-9.5 -5.5h-12q-6 0 -9.5 5.5t-3.5 13.5zM732 457q0 -9 -6 -15t-15 -6h-399q-8 0 -14.5 6t-6.5 15v16q0 9 6.5 15t14.5 6h156v12q0 7 5 12t12 5h53q8 0 13 -5t5 -12v-12h155q9 0 15 -6t6 -15v-16z" />
    <glyph glyph-name="iconduihua" unicode="&#xe62d;" 
d="M799 624h-574q-27 0 -46.5 -19t-19.5 -47v-366q0 -27 19.5 -46t46.5 -19h109v-151l168 151h297q27 0 46.5 19t19.5 46v366q0 28 -19.5 47t-46.5 19v0v0zM337 361q-18 0 -30.5 13t-12.5 31t12.5 31t31 13t31 -13t12.5 -31t-12.5 -31t-31.5 -13v0v0zM513 360q-18 0 -31 13
t-13 31t13 31t31 13t31 -13t13 -31t-13 -31t-31 -13v0v0zM687 360q-19 0 -31.5 12.5t-12.5 30.5t12.5 31t31 13t31 -13t12.5 -31t-12.5 -30.5t-30.5 -12.5v0v0zM687 360z" />
    <glyph glyph-name="gaojing" unicode="&#xe603;" 
d="M645 -7h-269h-9q-7 0 3 -16t31 -36q20 -19 48 -35q27 -16 59 -16h1h1.5h1h1.5q31 0 59 16q28 17 48 35q21 20 30 36q10 16 4 16h-9v0zM913 83v0q-19 27 -44 66q-24 38 -47 85q-22 47 -37 98q-16 52 -16 106q0 52 -14 95q-14 42 -38 75q-23 33 -55 56q-32 22 -68 34
q-38 11 -82 11h-0.5h-1.5v0v0h-0.5h-1.5q-44 0 -82 -11q-35 -12 -67 -34.5t-55 -55.5q-24 -33 -38 -75.5t-14 -94.5q0 -54 -16 -106q-16 -51 -37 -98q-23 -47 -47 -85q-25 -38 -44 -66v0q-8 -9 -7.5 -18t5 -15.5t10.5 -10.5v0q2 -1 8 -3q1 0 2.5 -0.5t2.5 -0.5h1h761h1
q1 0 2.5 0.5t2.5 0.5q6 2 7 3h1q6 4 10 10.5t4.5 15.5t-6.5 18v0zM913 83z" />
    <glyph glyph-name="class" unicode="&#xe6de;" 
d="M768 811h-512q-35 0 -60 -25t-25 -61v-682q0 -36 25 -61t60 -25h512q35 0 60 25t25 61v682q0 36 -25 61t-60 25zM256 725h213v-341l-106 64l-107 -64v341z" />
    <glyph glyph-name="zhaopin" unicode="&#xe613;" 
d="M502 750h12l6 -1q30 -1 58 -10q85 -27 130.5 -102t30.5 -162q-23 -124 -142 -177l-5 -2l3 -1q94 -22 164 -83q124 -111 129 -278v-84h-753q1 96 1 102q3 68 33 131q69 147 221 201q2 0 36 11h-1q-2 1 -3 2q-55 21 -92 65q-65 76 -56 176q7 75 58 132q57 64 142 77
q2 0 28 3zM512 -134l2 2l101 101q3 2 1 7q-67 157 -78 184q-3 6 1 10q20 23 39 67q2 5 -2 7q-2 1 -5.5 4t-5.5 4q-29 19 -61 17t-58 -25q-4 -2 -3 -5q21 -48 41 -71q4 -4 2 -10q-13 -30 -39 -90.5t-39 -91.5q-2 -5 2 -8l98 -98z" />
    <glyph glyph-name="xiangyou" unicode="&#xe62a;" 
d="M512 797q-104 0 -198 -40t-162.5 -108.5t-108.5 -162.5t-40 -198t40 -198t108.5 -162.5t162.5 -108.5t198 -40t198 40t162.5 108.5t108.5 162.5t40 198t-40 198t-108.5 162.5t-162.5 108.5t-198 40v0zM513 -126q-113 0 -208.5 55.5t-150.5 150.5t-55 208t55 208
t150.5 150.5t208 55.5t208 -55.5t151 -150.5t55.5 -208t-55.5 -208t-151 -150.5t-207.5 -55.5v0zM671 291v0q-2 20 -16 33l-187 172q-15 14 -35 13t-33.5 -15.5t-12.5 -34.5t15 -34l149 -137l-149 -137q-14 -14 -15 -34t12.5 -35t34 -15.5t34.5 13.5l187 172q14 13 16 33v0
v2v1v1v2v0zM671 291z" />
    <glyph glyph-name="xinxi" unicode="&#xe612;" 
d="M554 506h295q7 0 12.5 -5.5t5.5 -13.5v-23q0 -8 -5.5 -13.5t-12.5 -5.5h-295q-7 0 -12.5 5.5t-5.5 13.5v23q0 8 5.5 13.5t12.5 5.5zM48 714v-583q0 -16 11 -27t27 -11h394v-73q-97 -5 -161.5 -30t-65.5 -68q0 -91 263 -98q68 -1 122.5 9t90 33t35.5 57q0 41 -60 67.5
t-160 28.5l1 74h406q15 0 26.5 11t11.5 27v583q0 16 -11.5 27t-26.5 11h-865q-16 0 -27 -11t-11 -27v0zM939 703v-549h-843v549h843zM179 666h667q9 0 15 -6.5t6 -15.5v-17q0 -9 -6 -15t-15 -6h-667q-9 0 -15.5 6t-6.5 15v17q0 9 6.5 15.5t15.5 6.5zM151 361h29q7 0 12 -5
t5 -12v-112q0 -7 -5 -12t-12 -5h-29q-7 0 -12 5t-5 12v112q0 7 5 12t12 5zM247 457h30q7 0 11.5 -5t4.5 -12v-208q0 -7 -4.5 -12t-11.5 -5h-30q-7 0 -12 5t-5 12v208q0 7 5 12t12 5zM343 542h20q6 0 11 -4.5t5 -11.5v-295q0 -7 -5 -11.5t-11 -4.5h-20q-7 0 -11.5 4.5
t-4.5 11.5v295q0 7 4.5 11.5t11.5 4.5zM430 457h31q7 0 12 -5t5 -11v-210q0 -7 -5 -11.5t-12 -4.5h-31q-7 0 -12 4.5t-5 11.5v210q0 6 5 11t12 5zM555 411h293q8 0 13.5 -6t5.5 -14v-23q0 -8 -5.5 -13.5t-13.5 -5.5h-293q-8 0 -13.5 5.5t-5.5 13.5v23q0 8 5.5 14t13.5 6z
M552 312h299q7 0 11.5 -5t4.5 -11v-17q0 -7 -4.5 -11.5t-11.5 -4.5h-299q-7 0 -11.5 4.5t-4.5 11.5v17q0 6 4.5 11t11.5 5zM482 -90q0 -6 4.5 -10.5t10.5 -4.5h31q7 0 11 4.5t4 10.5v64q75 0 122.5 -16t47.5 -36q0 -24 -54.5 -40t-142.5 -16q-82 0 -143 18t-61 38t47 36.5
t123 16.5v-65z" />
    <glyph glyph-name="tongji" unicode="&#xe74d;" 
d="M917 -77h-812q-18 0 -30 12.5t-12 29.5v672q0 18 12 30t29.5 12t30 -12t12.5 -30v-532v-98h770q17 0 29.5 -12t12.5 -29.5t-12.5 -30t-29.5 -12.5zM819 49h-84q-18 0 -30 12.5t-12 29.5v294q0 18 12 30t30 12h84q17 0 29.5 -12t12.5 -30v-294q0 -17 -12.5 -29.5
t-29.5 -12.5zM581 49h-84q-18 0 -30 12.5t-12 29.5v462q0 18 12 30t30 12h84q17 0 29.5 -12t12.5 -30v-462q0 -17 -12.5 -29.5t-29.5 -12.5zM343 49h-84q-18 0 -30 12.5t-12 29.5v84q0 18 12 30t30 12h84q17 0 29.5 -12t12.5 -30v-84q0 -17 -12.5 -29.5t-29.5 -12.5v0z" />
    <glyph glyph-name="tianjia" unicode="&#xe6d2;" 
d="M801 590q-59 59 -135.5 89.5t-154.5 30.5t-154.5 -30.5t-135.5 -89.5q-79 -79 -107 -184.5t0 -211t107 -184.5t184.5 -107t211 0t184.5 107t107 184.5t0.5 211t-106.5 184.5h-1zM543 42q0 -13 -9.5 -22.5t-23 -9.5t-22.5 9.5t-9 22.5v225h-225q-13 0 -22.5 9t-9.5 22.5
t9.5 23t22.5 9.5h225v224q0 14 9 23t22.5 9t23 -9t9.5 -23v-224h224q14 0 23 -9.5t9 -23t-9 -22.5t-23 -9h-224v-225v0zM543 42z" />
    <glyph glyph-name="wendang" unicode="&#xe623;" 
d="M848 -191h-675q-38 0 -65 27t-27 65v798q0 38 27 65t65 27h675q39 0 66 -27t27 -65v-798q0 -38 -27 -65t-66 -27zM173 730q-13 0 -22 -9t-9 -22v-798q0 -13 9 -22t22 -9h675q13 0 22 9t9 22v798q0 13 -9 22t-22 9h-675zM293 584h435v-35h-435v35zM744 534h-466v66h466
v-66zM308 565h405v4h-405v-4zM293 444h435v-36h-435v36zM744 393h-466v66h466v-66zM308 424h405v4h-405v-4zM293 303h435v-35h-435v35zM744 252h-466v66h466v-66zM308 283h405v4h-405v-4z" />
    <glyph glyph-name="add" unicode="&#xe667;" 
d="M852.5 633.5q-92.5 92.5 -216 125t-247.5 -0.5t-216 -125t-125 -216t0 -247.5t125.5 -216t216.5 -125t247.5 0t215.5 125t125 216.5t0 247.5t-125.5 216zM747 246h-197v-197q0 -16 -10.5 -27t-26 -11t-26.5 11t-11 26v198h-197q-15 0 -26 10.5t-11 26t11 26.5t26 11h197
v197q0 15 11 26t26.5 11t26 -11t10.5 -26v-197h197q16 0 26.5 -10.5t10.5 -26t-10.5 -26.5t-26.5 -11z" />
    <glyph glyph-name="tixing" unicode="&#xe620;" 
d="M512 812q-104 0 -199 -40.5t-163.5 -109t-109 -163.5t-40.5 -199t40.5 -199t109 -163.5t163.5 -109t199 -40.5t199 40.5t163.5 109t109 163.5t40.5 199t-40.5 199t-109 163.5t-163.5 109t-199 40.5v0v0zM512 -148q-91 0 -174 35.5t-143 95.5t-95.5 143t-35.5 174
t35.5 174t95.5 143t143 95.5t174 35.5t174 -35.5t143 -95.5t95.5 -143t35.5 -174t-35.5 -174t-95.5 -143t-143 -95.5t-174 -35.5v0v0zM760 154q-11 14 -25 36q-13 21 -26 46q-11 24 -20 52q-8 26 -8 54q0 33 -9 60q-10 27 -25.5 48.5t-36.5 36.5q-19 13 -44 21q5 12 5 25
q0 24 -17 41.5t-41.5 17.5t-42 -17.5t-17.5 -41.5q0 -13 6 -25h-2.5t-2.5 -1q-22 -7 -43 -22q-20 -15 -35 -35q-16 -21 -25 -48q-10 -27 -10 -61q0 -28 -8 -54q-9 -27 -20 -51q-11 -23 -26 -46q-13 -22 -24 -41q-13 -21 -3 -40q11 -18 31 -18h440q7 0 18 6q7 4 13 13
q5 8 6 19q1 13 -8 25v0zM512 551q8 0 13 -5.5t5 -12.5t-5 -12.5t-12.5 -5.5t-12.5 5.5t-5 12.5t5 12.5t12 5.5v0zM409 49h207v-41h-207v41v0z" />
    <glyph glyph-name="dianhua" unicode="&#xe6d9;" 
d="M407 399q-6 0 -10 -4t-4 -10t4 -10.5t10 -4.5t10 4t4 11q0 6 -4.5 10t-9.5 4v0zM458 344q-6 0 -10 -4.5t-4 -10.5t4 -10t10 -4t10.5 4t4.5 10t-4.5 10.5t-10.5 4.5v0zM539 452q5 0 9 4t4 10t-4 10t-9.5 4t-9.5 -4t-4 -10t4 -10t10 -4v0zM486 451q6 0 10 4.5t4 10.5
t-4 10.5t-10 4.5t-10 -4.5t-4 -10.5t4.5 -10.5t9.5 -4.5v0zM575 399q0 22 -19 38t-45.5 16t-45.5 -16t-19 -38t19 -38.5t45 -16.5q27 0 46 16.5t19 38.5v0zM433 453q-6 0 -10 -4t-4 -10t4 -10t10 -4t10 4t4 10t-4 10t-10 4v0zM565 344q-6 0 -10 -4.5t-4 -10.5t4.5 -10
t9.5 -4t9 4t4 10t-4 10.5t-9 4.5v0zM618 398q-6 0 -10 -4t-4 -10t4 -10t9.5 -4t9.5 4t4 10t-4 10t-9 4v0zM630 511l1 23q0 25 -13.5 38.5t-26.5 15.5l-14 1h-132q-24 0 -36.5 -12.5t-13.5 -25.5l-1 -12v-29q-80 -31 -107 -86q-3 -12 -8.5 -32t-17.5 -61.5t-19.5 -66.5
t-7.5 -19v-94q1 -1 0 -6t2 -13.5t7.5 -16.5t16 -14t27.5 -6h448q3 0 6.5 0.5t13 4t17 9t13.5 16.5t6 26v89l-58 183q-38 59 -103 88v0zM513 289v0q5 0 8.5 4t3.5 9q0 6 -4 9.5t-9 3.5t-9 -4t-4 -9q1 -13 14 -13q-62 0 -105.5 32.5t-43.5 78.5t43.5 78.5t105.5 32.5
q62 -1 105.5 -33.5t43.5 -78.5t-43.5 -78t-105.5 -32v0zM591 453q-6 0 -10 -4.5t-4 -10t4.5 -10t9.5 -4.5q6 0 9.5 4t3.5 10q1 6 -3 10.5t-10 4.5v0zM871 590l-55 31q-3 2 -9.5 5.5t-31 12.5t-54.5 16t-82.5 12.5t-113.5 5.5h-33q-34 0 -68.5 -3t-62 -7.5t-52 -10t-43 -11
t-31.5 -10.5t-20 -7.5l-7 -2.5l-55 -31q-58 -31 -36 -90l4 -9v0l32 -67l189 99q-17 31 -22 44q-3 5 -3.5 7t2 3.5t3.5 1.5q10 4 26.5 10.5t61.5 17.5t82 11h40q13 0 34.5 -1.5t67.5 -12.5t69 -31q3 -3 4 -2v0q-1 -1 -3 -5q-2 -7 -5 -13.5t-6 -11.5t-5.5 -9.5t-3.5 -6.5
l-2 -2l189 -99l32 67q1 0 4 7t4.5 18t0.5 23.5t-11.5 26.5t-29.5 24v0z" />
    <glyph glyph-name="jinggao" unicode="&#xe60a;" horiz-adv-x="1025" 
d="M1012 197l-419 651q-1 2 -2.5 5.5t-8.5 11.5t-15.5 14.5t-23 11.5t-31.5 5q-25 0 -45 -12t-28 -24l-8 -12l-419 -651q-12 -16 -12 -46q0 -39 27.5 -66t65.5 -27h838q39 0 66 27t27 66q0 14 -3 25.5t-6 15.5zM466 244q0 19 13.5 33t32.5 14t33 -14t14 -33t-14 -32.5
t-33 -13.5t-32.5 13.5t-13.5 32.5zM535 360q0 -9 -6.5 -16t-16 -7t-16.5 7t-7 16l-23 257q0 19 13.5 32.5t32.5 13.5t33 -13.5t14 -32.5z" />
    <glyph glyph-name="tixing1" unicode="&#xe64b;" 
d="M510 -61q-90 0 -173 35.5t-142.5 95.5t-95 142.5t-35.5 173t35.5 173.5t95 142.5t142.5 95t173.5 35.5t173 -35.5t142.5 -95t95.5 -142.5t35.5 -173.5t-35.5 -173t-95.5 -142.5t-142.5 -95.5t-173.5 -35.5v0v0zM510 768q-103 0 -191 -51.5t-139.5 -139.5t-51.5 -191.5
t51.5 -191.5t139.5 -139.5t191.5 -51.5t191.5 51.5t139.5 139.5t51.5 191.5t-51.5 191.5t-139.5 139.5t-192 51.5v0v0zM510 768zM511 104q28 0 51 15t35 39h-171q12 -24 34.5 -39t50.5 -15v0zM741 239v0q-18 5 -29 19.5t-11 33.5v0.5v0.5v0v149h-1q-2 70 -48 122t-114 64v3
q0 14 -9.5 24t-23.5 10t-24 -10t-10 -24v-3q-68 -12 -114 -64t-48 -122v0v-149h-1l0.5 -1t0.5 -2q0 -17 -9.5 -31t-24.5 -21q-9 -2 -15 -9.5t-6 -16.5q0 -11 8 -19t19 -8h460q11 0 19 8t8 19t-8 19t-19 8v0zM348 239q15 25 15 54v1v1v133v0v3.5v3.5q0 59 41.5 100.5
t100 41.5t100.5 -41.5t42 -100.5q0 -1 -0.5 -3.5t-0.5 -3.5h1v-135q0 -29 14 -54h-313v0zM348 239z" />
    <glyph glyph-name="touxiang1" unicode="&#xe60e;" 
d="M725 -128l-46 2q-2 5 -18 10.5t-31 6.5l-589 5l-2 86q0 32 34 66q37 37 102.5 65t106.5 28h3q26 -1 54 12t41 25l4 69q-1 25 -104 163l-16 21q-29 59 5 112q-1 119 0 168v4l1 4q9 22 45 61q17 18 20 24q-2 17 12 40q6 12 8 18l5 15h16q67 4 124.5 -4t95.5 -21.5t68 -33
t46.5 -36.5t28 -36t14.5 -27t5 -13v-3v-3q-2 -96 -2 -160q19 -19 20 -47q0 -23 -10 -46t-22 -33q-35 -36 -61 -78.5t-33 -62.5t-11 -34v-57q12 -12 37.5 -26t47.5 -14q65 -6 117 -26.5t78.5 -41.5t45 -47.5t22.5 -38t6 -18.5l1 -5v-74h-225v47h178v24q-2 8 -7 18.5t-21.5 30
t-39.5 35.5t-64.5 30.5t-93.5 18.5q-37 1 -83 29t-46 51l1 71q1 5 3 13.5t11 31t21 45t34 53.5t50 58l1 2q5 4 11 18t5 26q-1 11 -10 18l-10 6v12q0 50 3 168q-4 11 -11 23t-30 34.5t-55.5 39t-91 28.5t-132.5 10q-2 -5 -5 -10q-6 -11 -6 -14q3 -13 -4.5 -25.5t-27.5 -34.5
q-27 -29 -34 -42q-1 -86 0 -171v-8l-6 -7q-1 -2 -2.5 -4.5t-4.5 -9t-4 -14t0.5 -18t6.5 -21.5l12 -16q59 -79 86.5 -123.5t26.5 -68.5l-3 -69q1 -7 -1 -13q-7 -21 -53 -45.5t-90 -23.5q-30 2 -88.5 -23.5t-89.5 -55.5q-19 -20 -19 -32l1 -41l545 -4q39 -4 66.5 -20.5
t26.5 -45.5z" />
    <glyph glyph-name="fanhui1" unicode="&#xe61c;" 
d="M828.5 701q-63.5 63 -145 97t-171 34t-171.5 -34t-145 -97t-97 -145t-34 -171.5t34 -171t97 -145t145 -97.5t171.5 -34t171 34t145 97.5t97.5 145t34 171t-34 171.5t-97.5 145zM575 206l-175 165q-6 5 -6 13.5t6 14.5l175 165q6 5 14 5t13.5 -6t5 -14t-6.5 -14l-159 -150
l159 -151q6 -5 6.5 -13.5t-5.5 -13.5q-5 -6 -14 -6q-8 0 -13 5v0z" />
    <glyph glyph-name="tuisong" unicode="&#xe66b;" 
d="M1024 725v-682q0 -71 -50 -121t-121 -50h-682q-71 0 -121 50t-50 121v682q0 71 50 121t121 50h682q71 0 121 -50t50 -121v0zM403 677q0 10 -6.5 16.5t-16 6.5t-16.5 -6.5t-7 -16.5v-64q0 -10 7 -16.5t16.5 -6.5t16 6.5t6.5 16.5v64zM580 677h-159v-53h99l60 27v26z
M621 700q-10 0 -16.5 -6.5t-6.5 -16.5v-18l46 21q-1 8 -7.5 14t-15.5 6zM818 700l-475 -213q-1 -1 -1 -1.5t1 -0.5l116 -32l52 -160q0 -1 1 -1v0q1 0 1 1l9 40v1l-35 114l332 250q1 1 0.5 2t-1.5 0zM733 220q0 4 -5 4h-433q-4 0 -4 -4v-36q0 -5 4 -5h433q5 0 5 5v35v1z
M295 259h159q4 0 4 5v35v1q0 5 -4 5h-159q-4 0 -4 -5v-36q0 -5 4 -5zM295 340h88q4 0 4 4v36v0q0 5 -4 5h-88q-4 0 -4 -5v-36q0 -4 4 -4zM827.5 693.5q-0.5 0.5 -1.5 -0.5l-264 -277v-1l-46 -141q0 -1 0.5 -1.5t1.5 0.5l112 101l166 -116q0 -1 1 -1v0l1 1l30 434
q0 1 -0.5 1.5zM828 173l-53 37v-89h-526v503h91v53h-93q-21 0 -36 -15t-15 -37v-506q0 -21 15 -36t36 -15h530q21 0 36 15t15 36v54z" />
    <glyph glyph-name="class1" unicode="&#xe614;" horiz-adv-x="1098" 
d="M0 -128v1024h1097v-73v0v-805v-73v-73h-1097zM166 767l-50 -53l376 -348l50 54zM731.5 750q-60.5 0 -103.5 -43t-43 -103.5t43 -103.5t103.5 -43t103.5 43t43 103.5t-43 103.5t-103.5 43zM731 384q-51 -5 -92.5 -53t-64 -109t-37.5 -128t-20 -104.5t-5 -44.5h439
q-1 6 -2 16t-5 41t-9.5 61t-15 70.5t-21 75t-29 69.5t-37 58.5t-45.5 37t-56 10.5z" />
    <glyph glyph-name="vip" unicode="&#xe66a;" 
d="M743 174q1 1 5.5 4t6.5 5q11 10 10 26l-3 51l50 8q16 2 24 16q44 83 44 177v13l-1 4q-1 16 -14 25l-42 29l26 46q8 13 2 28q-40 94 -123 155q-13 9 -28 5l-49 -15l-19 48q-6 15 -21 19q-99 28 -197 0q-16 -4 -22 -19l-19 -48l-49 15q-15 4 -28 -5q-83 -61 -123 -155
q-6 -15 2 -28l26 -46l-42 -29q-13 -9 -14 -25v-5q-1 -8 -1 -12q0 -94 45 -177q7 -14 23 -16l50 -8l-3 -51q-2 -15 10 -26q2 -2 6 -4.5t6 -4.5l-86 -140q-13 -21 1 -39.5t38 -11.5l79 22l50 -57q11 -13 27 -13q3 0 7 1q20 5 26 25l41 137q7 2 11 7l37 34l37 -34q9 -9 22 -9
q3 0 5 1q58 10 114 41l46 -73l-20 5q-25 8 -43 -12l-27 -32l-5 14q-5 12 -17 18t-24.5 1.5t-18 -16.5t-0.5 -25l21 -59q7 -19 27 -23q3 -1 6 -1q16 0 27 13l50 57l80 -22q24 -7 38 11.5t1 39.5zM377 29l-25 29q-17 20 -43 12l-20 -5l45 73q35 -20 67 -30zM534 206
q-9 9 -22 9t-22 -9l-46 -43q-67 15 -120 58l4 64q1 13 -6.5 22.5t-20.5 11.5l-63 10q-30 62 -30 130l53 37q11 7 13.5 19.5t-3.5 22.5l-33 57q30 61 83 105l62 -19q12 -4 23.5 1.5t15.5 17.5l24 60q66 15 132 0l24 -60q4 -12 15.5 -17.5t23.5 -1.5l62 19q53 -44 83 -105
l-33 -57q-6 -10 -3.5 -22.5t13.5 -19.5l53 -37q0 -68 -30 -130l-63 -10q-13 -2 -20.5 -11.5t-6.5 -22.5l4 -64q-53 -43 -120 -58zM512 242q-92 0 -157 65t-65 157t65 157t157 65t157 -65t65 -157t-65 -157t-157 -65zM512 622q-65 0 -111.5 -46.5t-46.5 -111.5t46.5 -111.5
t111.5 -46.5t111.5 46.5t46.5 111.5t-46.5 111.5t-111.5 46.5z" />
    <glyph glyph-name="fanhui2" unicode="&#xe60c;" 
d="M510 -60q-92 0 -175 36t-143.5 96t-96 143.5t-35.5 174.5t35.5 174.5t96 143.5t143.5 96t174.5 36t174.5 -36t143.5 -96t96 -143.5t35.5 -174.5t-35.5 -174.5t-96 -143.5t-143.5 -96t-174 -36v0zM510 788q-108 0 -199.5 -53t-145 -144.5t-53.5 -199.5t53.5 -199.5
t145 -144.5t199 -53t199 53t145 144.5t53.5 199.5t-53.5 199.5t-145 144.5t-198.5 53v0zM288 379l1 -1q1 -3 2.5 -5.5t3.5 -4.5v0l159 -159q10 -10 23 -10t22.5 9.5t9.5 22.5t-9 23l-104 103h305q14 0 23 9.5t9 22.5q0 9 -4 16.5t-11.5 11.5t-16.5 4h-306l106 105q9 10 9 23
t-9 22.5t-23 9.5q-13 -1 -22 -9l-161 -159q-15 -15 -7 -34z" />
    <glyph glyph-name="icon00104" unicode="&#xe61d;" 
d="M937 646q-14 68 -57 111t-110 57q-101 19 -260 19t-259 -19q-68 -14 -111 -57t-57 -111q-19 -101 -19 -260.5t19 -259.5q14 -69 57 -112t111 -56q100 -20 259 -20t260 20q67 13 109.5 56t57.5 112q22 100 22 255.5t-22 264.5zM788 222q0 -22 -12.5 -35.5t-35.5 -13.5
h-455q-51 0 -51 51v306q0 22 13.5 34.5t35.5 12.5h453q29 0 40.5 -13.5t11.5 -38.5v-303zM511 369l-229 183h-23l1 -24l251 -207l252 207v24h-23z" />
    <glyph glyph-name="shijian" unicode="&#xe61b;" 
d="M544 650h-59v-297l179 -49l30 52l-150 40v254zM515 799q-113 0 -209 -56t-152 -152t-56 -209t56 -209t152 -151.5t209 -55.5t209 55.5t151.5 151.5t55.5 209t-55.5 209t-151.5 152t-209 56zM515 25q-97 0 -179.5 48t-130 130t-47.5 179t47.5 179.5t130 130t179.5 47.5
t179 -47.5t130 -130t48 -179.5t-48 -179t-130 -130t-179 -48z" />
    <glyph glyph-name="iconfontpeixun" unicode="&#xe64c;" 
d="M316 555q10 -30 30 -42t40 0t30 42q13 7 15 23q3 22 -9 22q-1 24 -15 39.5t-40.5 15.5t-40.5 -14.5t-16 -40.5q-12 0 -9 -22q2 -16 15 -23zM450 191v22q19 0 31.5 13t12.5 31v2l172 171q8 8 -0.5 16.5t-16.5 0.5l-155 -155v146q0 24 -15.5 42.5t-39.5 23.5l-24 5l-49 -98
l-49 98l-24 -5q-24 -5 -39.5 -23.5t-15.5 -42.5v-181q0 -18 13 -31t31 -13v-22h168zM98 343q0 -50 36 -86t87 -36h1q-10 17 -10 36v17q-26 3 -44 23t-18 46v333q0 29 21 49.5t50 20.5h583q29 0 50 -20.5t21 -49.5v-333q0 -29 -21 -49.5t-50 -20.5h-258l-26 -26
q-2 -13 -11 -26h295q51 0 87 36t36 86v333q0 50 -36 86t-87 36h-583q-51 0 -87 -36t-36 -86v-333zM270 148h-92q-33 0 -56.5 -23.5t-23.5 -56.5v-105h252v105q0 33 -23.5 56.5t-56.5 23.5zM560 148h-92q-33 0 -56.5 -23.5t-23.5 -56.5v-105h252v105q0 33 -23.5 56.5
t-56.5 23.5zM850 148h-92q-33 0 -56.5 -23.5t-23.5 -56.5v-105h252v105q0 33 -23.5 56.5t-56.5 23.5z" />
    <glyph glyph-name="expand-20" unicode="&#xe611;" 
d="M51 77h922v-103h-922v103zM358 333h615v-103h-615v103zM358 538h615v-104h-615v104zM51 794h922v-104h-922v104zM51 563l206 -205l-206 -154v359z" />
    <glyph glyph-name="iconfont0030shikebiao" unicode="&#xe608;" horiz-adv-x="1210" 
d="M93 385v406q0 37 20.5 64.5t54.5 36.5q14 4 26 4h652q39 0 68.5 -27.5t31.5 -67.5q1 -41 0 -145q0 -14 -10 -24t-24.5 -9.5t-24 10.5t-9.5 25v65.5v65.5q0 39 -39 39h-639q-38 0 -38 -38v-812q0 -38 38 -38h233q29 0 35 -27q3 -15 -6 -27t-24 -13q-2 -1 -6 -1h-235
q-35 0 -61.5 19t-36.5 51q-5 16 -6 37v406v0zM93 385zM775 -128q-92 0 -170.5 45.5t-124 124.5t-45.5 171.5t45.5 171t124.5 124.5t171.5 45.5t171 -46t124 -124.5t45.5 -172q0 -92 -45.5 -170.5t-124.5 -124t-172 -45.5v0zM776 486q-112 1 -192.5 -79t-80.5 -193t79.5 -193
t191.5 -81q113 0 194 79.5t81 191.5q0 114 -79.5 194.5t-193.5 80.5v0zM776 486zM520 691h185q29 0 36 -25q4 -16 -5.5 -29t-26.5 -14h-5h-369q-15 0 -25 8.5t-12 22.5q-1 13 7.5 24t22.5 13h10h182v0zM520 691zM366 418q-35 0 -38 1q-11 0 -19 7.5t-10 18.5q-6 25 16 36
q9 5 18 5q22 1 66 0q15 0 25 -9.5t11 -24.5q0 -14 -10 -23.5t-24 -10.5h-35v0v0zM366 418zM810 292v-59q0 -6 4 -10l25.5 -25.5l28.5 -28.5q14 -14 9.5 -32.5t-23.5 -23.5q-19 -7 -33 7q-24 23 -70 70q-9 9 -9 23v137q0 14 10 24t24 10t24 -10t10 -24v-29.5v-28.5v0z
M810 292z" />
    <glyph glyph-name="renyuan03" unicode="&#xec7b;" 
d="M0 258q1 9 1 28t1.5 33t3.5 27q17 84 103 116q8 3 16 -3q38 -30 84.5 -30t84.5 30q6 5 14 3q30 -9 58 -34q7 -5 14 -4q131 33 266 3q7 -1 13 4q28 23 56 31q8 2 13 -3q39 -30 86 -30t85 30q6 5 14 3q47 -15 76.5 -53.5t31.5 -91.5q1 -11 0.5 -60.5t0.5 -60.5q0 -8 -9 -12
q-46 -21 -108 -29q-12 -2 -32.5 -3.5t-27.5 -1.5q-7 -1 -11 -5q-51 -63 -146 -93q-182 -58 -359 6q-81 30 -128 87q-3 5 -10 5q-82 4 -180 33q-10 3 -9 14v61h-2zM391 401q1 -4 1 -5q26 -40 25 -100q-1 -52 0 -95q0 -13 -13 -19q-53 -22 -122 -29q-3 -1 -49 -4l2 -3
q6 -7 9 -9q42 -39 108 -60q131 -43 273 -16q93 18 155 66q1 0 26 22l-7 1q-82 4 -182 33q-11 3 -11 14v55.5t1 55.5q0 26 5 44q1 4 20 52q-120 25 -241 -3zM88 575q1 50 36.5 85.5t85.5 34.5q50 0 86 -36.5t35 -85.5q-1 -51 -37 -86.5t-86.5 -34.5t-85.5 37t-34 86zM814 452
q-51 0 -86.5 36t-35 86t36 85.5t85.5 35.5t86 -36t36 -86q-1 -50 -36.5 -85.5t-85.5 -35.5z" />
    <glyph glyph-name="youjian03" unicode="&#xed1b;" 
d="M514 788h269q63 0 63 -63v-360q0 -11 -8 -16q-31 -21 -288 -199q-20 -14 -36.5 -14t-36.5 14q-284 197 -287 199q-8 5 -8 15v114v134.5v115.5q0 28 16 44t44 16h272zM515 431h-160q-13 0 -19.5 -4t-5.5 -13q0 -16 25 -16h318q11 0 13 1q9 6 12 14q3 11 -10 16q-5 2 -14 2
h-159zM514 549h160h10q14 3 14 17q0 13 -14 15q-2 1 -10 1h-320q-9 0 -11 -1q-13 -2 -13.5 -15t12.5 -16q3 -1 12 -1h160zM352 192q105 -71 115 -77q47 -32 94 0q3 1 114 77q9 -7 9 -8q16 -15 112 -107.5t147 -141.5q13 -13 12 -26q0 -10 -6.5 -17t-16.5 -9h-14h-807
q-30 0 -37 18q-7 17 14 37q42 40 254 245zM709 215q8 6 37.5 26t45.5 31q145 98 183 123q11 8 21 9t18 -6t10 -18v-10v-389q0 -8 -1 -11q-2 -15 -15.5 -20.5t-25.5 2.5q-4 2 -8 6q-105 102 -259 250q0 1 -6 7zM320 213q-9 -6 -9 -7q-148 -143 -257 -247q-16 -17 -33 -10
t-17 31v393q0 20 14 28q15 8 31 -3q155 -105 266 -181zM879 377v202l6 -4q69 -60 93 -82q31 -28 -3 -51q-7 -4 -96 -65zM148 377q-18 13 -20 14q-70 47 -77 52q-14 10 -15 23t12 25q10 9 100 89v-203zM605 821h-184q21 19 22 20q33 29 37 32q16 12 34 12t33 -12q5 -4 55 -47
q0 -1 3 -5z" />
    <glyph glyph-name="gantanhao" unicode="&#xe67e;" 
d="M512 -128q-139 0 -257 68.5t-186.5 186.5t-68.5 257t68.5 257t186.5 186.5t257 68.5t257 -68.5t186.5 -186.5t68.5 -257t-68.5 -257t-186.5 -186.5t-257 -68.5zM512 828q-90 0 -172.5 -35.5t-141.5 -94.5t-94.5 -141.5t-35.5 -172.5t35.5 -172.5t94.5 -141.5t141.5 -94.5
t172.5 -35.5t172.5 35.5t141.5 94.5t94.5 141.5t35.5 172.5t-35.5 172.5t-94.5 141.5t-141.5 94.5t-172.5 35.5zM512 77q-28 0 -48 20t-20 48t20 48t48 20t48 -20t20 -48t-20 -48t-48 -20zM512 282q-14 0 -24 20t-10 48l-34 307q0 28 20 48t48 20t48 -20t20 -48l-34 -307
q0 -28 -10 -48t-24 -20z" />
    <glyph glyph-name="weibiaoti1" unicode="&#xe610;" horiz-adv-x="1025" 
d="M1003 528h-361l-111 303q-4 11 -9.5 14.5t-11 0t-9.5 -14.5l-113 -303h-368q-17 0 -19.5 -7t11.5 -18l298 -215l-111 -344q-6 -17 0.5 -22t20.5 6l294 212l294 -211q15 -11 21 -6t1 22l-112 344l294 214q14 11 11.5 18t-20.5 7z" />
    <glyph glyph-name="guanlihoutai20" unicode="&#xe63a;" 
d="M774 384q0 -26 -19 -45l-403 -403q-19 -19 -44 -19t-39 19q-19 19 -19 44t19 39l358 365l-358 358q-19 20 -19 44.5t19 39.5q19 19 44 19t39 -19l403 -404q19 -9 19 -38z" />
    <glyph glyph-name="xiugaitouxiang" unicode="&#xe61a;" 
d="M502 595q-44 0 -75 -31t-31 -74.5t31 -75t75 -31.5t75 31.5t31 75t-31 74.5t-75 31v0zM502 775q-110 0 -203 -54t-147 -147t-54 -203t54 -203t147 -147t203 -54t203 54t147 147t54 203t-54 203t-147 147t-203 54v0zM690 159q-8 0 -14 6t-6 14q0 69 -48.5 116.5t-119 47.5
t-119.5 -47.5t-49 -116.5q0 -8 -5.5 -14t-14 -6t-14 6t-5.5 14q0 86 61 145q28 28 66 43q-12 8 -23 19q-43 43 -43 103.5t43 103.5q43 42 103.5 42t103 -42.5t42.5 -103t-43 -103.5q-11 -11 -23 -19q38 -15 67 -43q61 -59 61 -145q0 -8 -6 -14t-14 -6v0zM690 159z" />
    <glyph glyph-name="releave" unicode="&#xe641;" 
d="M456 65q-12 0 -20.5 8.5t-8.5 20.5v44q0 68 36 123.5t98 83.5q-45 42 -45 103q0 57 41 98t99 41t99.5 -41t41.5 -98q0 -61 -45 -103q61 -28 97.5 -83.5t36.5 -123.5v-44q0 -12 -9 -20.5t-21 -8.5h-400zM827 123v15q0 70 -50 120t-120.5 50t-121 -50t-50.5 -120v-15h342z
M656 529q-34 0 -58 -24t-24 -57.5t24 -57.5t58 -24t58 24t24 57.5t-24 57.5t-58 24zM291 347l98 98v159h61v-179l-113 -112zM364 174q-83 16 -143.5 75t-77.5 142q-25 113 38.5 211t176.5 122q30 6 59 6q61 0 118 -26t97 -73l9 -12l-65 -23l-4 5q-64 65 -155 65
q-23 0 -45 -5q-88 -19 -136.5 -94t-29.5 -163q14 -69 66.5 -116t122.5 -54l17 -1l-41 -60z" />
    <glyph glyph-name="huiyuan" unicode="&#xe62c;" 
d="M573 462q-40 -17 -73.5 -44.5t-58 -63.5t-38 -78t-13.5 -89q0 -41 10.5 -79t29.5 -71h-21q-23 0 -53.5 1.5t-63.5 4.5l-64 6q-32 4 -58.5 8t-44.5 8t-23 8q-8 6 -12.5 39t3.5 84q3 20 13 32.5t24 22t31.5 15t36 10.5t35.5 11t31 15q16 10 25.5 20t13.5 19.5t4 19.5t-1 23
q-2 18 -13 29t-24 22q-7 5 -12 15t-9 20q-4 12 -8 25q-6 1 -11 5t-10.5 11.5t-9.5 21t-3 24.5t5 19q3 9 10 17q0 30 3 60q3 26 11 55t25 52q16 22 34 36t38 22t39 10.5t38 2.5q23 0 45.5 -5t42 -13.5t35 -19.5t24.5 -22q21 -26 30.5 -56.5t13.5 -58.5q4 -31 4 -64
q5 -4 8 -10t5 -14.5t1 -21.5q-2 -17 -7 -27t-11 -15q-8 -7 -15 -9l-4 -10l-4 -11q-1 -6 -4 -12v0v0zM687 436q51 0 96.5 -19.5t79.5 -53.5t53.5 -79.5t19.5 -97t-19.5 -97.5t-53.5 -80t-79.5 -53t-96.5 -19q-53 0 -98.5 19t-79 53t-53.5 80t-20 97t20 97t53.5 80t79 53.5
t98.5 19.5v0v0zM832 235q5 16 -4 29t-24 18.5t-30 1t-22 -24.5q-4 -14 -8 -25q-4 -12 -7 -24q-4 -13 -9 -27.5t-13 -33.5q-8 -21 -22.5 -19.5t-22.5 16.5q-9 16 -16 34q-7 17 -15 36q-7 17 -12 32q-6 14 -10 23q-6 12 -21 14t-28.5 -4t-23 -19t-2.5 -28q5 -16 12 -35.5
t15 -40.5q8 -20 15.5 -40t12.5 -34q12 -30 36 -45t50.5 -16t51 11.5t35.5 38.5q9 21 18 43t17.5 44t15.5 41q7 20 11 34v0v0zM832 235z" />
    <glyph glyph-name="touxiang2" unicode="&#xe63c;" 
d="M85 -61q0 3 29 102q23 83 37 117t28 43q12 8 96 36q129 44 153 71q9 11 12 42q2 23 -0.5 31t-18.5 28q-21 26 -32.5 57t-16.5 31q-10 0 -20 42t0 48q4 2 -1 33q-5 30 1 66.5t19 53.5q12 17 22 38q18 37 53.5 48t100.5 -3q61 -12 89 0q5 3 11 -5.5t10 -23.5t4 -31
q0 -27 8.5 -52t5.5 -73t2 -51q11 -7 1.5 -44.5t-23.5 -45.5q-9 -5 -9 -14q-1 -11 -13 -34.5t-26 -41.5q-14 -17 -16 -24t0 -31q4 -39 34 -59.5t134 -56.5q8 -2 21 -7q31 -10 43 -14t28.5 -15t20.5 -16.5t13.5 -27.5t13 -38.5t13.5 -58.5q4 -18 6 -28q21 -88 21 -91t-427 -3
t-427 2v0z" />
    <glyph glyph-name="fujian" unicode="&#xe63f;" horiz-adv-x="1111" 
d="M820 478l18 21q17 22 -8 46.5t-45 7.5q-7 -5 -12 -9.5t-7 -6l-2 -1.5l-266 -265q-16 -15 -47 -45q-48 -44 -94 3t-2 94l43 48l372 371q21 15 64 45q64 45 138 -28.5t29 -137.5l-46 -65l-503 -503q-9 -9 -28 -27q-27 -27 -71.5 -48t-100 -19.5t-111.5 57.5t-56.5 110.5
t20.5 98.5t48 72l27 27l383 382q5 8 17 22q17 22 -6.5 46t-45.5 7q-15 -12 -22 -18h-1l-438 -438q-7 -10 -23 -31q-23 -32 -36.5 -83t-2 -117t80.5 -135t135.5 -81t117.5 1.5t82.5 37l31.5 23.5l602 602l42.5 84.5t-65.5 191.5q-108 109 -192.5 66.5l-84.5 -42.5l-442 -443
q-18 -23 -52 -69q-51 -69 39.5 -159.5t158.5 -37.5l68 52z" />
    <glyph glyph-name="shouqi-copy-copy" unicode="&#xe609;" 
d="M786 821q0 -21 -15 -36l-409 -400l409 -400q14 -14 14.5 -35t-14 -36t-35.5 -15t-36 14l-445 436q-15 15 -15 36t15 36l445 436q15 15 36 14.5t35 -15.5q15 -14 15 -35z" />
    <glyph glyph-name="neiyetiaozhuan" unicode="&#xe6db;" 
d="M640 64q0 -29 -17.5 -46.5t-46.5 -17.5h-384q-29 0 -46.5 17.5t-17.5 46.5v384q0 29 17.5 46.5t46.5 17.5h179l128 128h-435q-24 0 -44 -20t-20 -44v-640q0 -24 20 -44t44 -20h640q24 0 44 20t20 44v435l-128 -128v-179zM954 794q0 3 -3.5 6t-3.5 6q0 7 -6 7l-7 6
q-3 0 -6 3.5t-6 3.5q-7 6 -26 6h-384q-29 0 -46.5 -17.5t-17.5 -46.5t17.5 -46.5t46.5 -17.5h230l-467 -467q-19 -19 -19 -45t19 -45t45 -19t45 19l467 467v-230q0 -29 17.5 -46.5t46.5 -17.5t46.5 17.5t17.5 46.5v384q0 19 -6 26z" />
    <glyph glyph-name="01class" unicode="&#xe615;" 
d="M371 819h-294v-294q0 -17 11 -28t27 -11h295v295q0 16 -11 27t-28 11zM77 243v-294h294q17 0 28 11t11 27v295h-295q-16 0 -27 -11t-11 -28zM909 282h-295v-295q0 -16 11 -27t28 -11h294v294q0 17 -11 28t-27 11zM614 781v-295h295q16 0 27 11t11 28v294h-294
q-17 0 -28 -11t-11 -27zM371 896h-371v-371q0 -48 33.5 -81.5t81.5 -33.5h371v371q0 48 -33.5 81.5t-81.5 33.5zM410 486h-295q-16 0 -27 11t-11 28v294h294q17 0 28 -11t11 -27v-295zM909 358h-371v-371q0 -48 33.5 -81.5t81.5 -33.5h371v371q0 48 -33.5 81.5t-81.5 33.5z
M947 -51h-294q-17 0 -28 11t-11 27v295h295q16 0 27 -11t11 -28v-294zM653 896q-48 0 -81.5 -33.5t-33.5 -81.5v-371h371q48 0 81.5 33.5t33.5 81.5v371h-371zM947 525q0 -17 -11 -28t-27 -11h-295v295q0 16 11 27t28 11h294v-294zM0 243v-371h371q48 0 81.5 33.5t33.5 81.5
v371h-371q-48 0 -81.5 -33.5t-33.5 -81.5zM410 -13q0 -16 -11 -27t-28 -11h-294v294q0 17 11 28t27 11h295v-295z" />
    <glyph glyph-name="tuichu" unicode="&#xe600;" 
d="M295 654q-38 -27 -67.5 -61.5t-50.5 -74t-32 -84t-11 -89.5q0 -79 30 -147.5t81 -119.5t120 -81t147 -30t146.5 30t120 81t81 119.5t29.5 147.5q0 45 -10.5 88t-30 81.5t-48 72.5t-63.5 61q-19 13 -40.5 10t-35 -21t-10 -40t20.5 -35q54 -39 82 -95.5t28 -121.5
q0 -56 -21 -105t-57.5 -86t-86 -58.5t-105.5 -21.5t-105 21.5t-86 58.5t-58.5 86t-21.5 105q0 66 30.5 124.5t85.5 96.5q18 13 22 34.5t-9 40.5q-12 18 -34 21.5t-41 -8.5v0zM512 342q22 0 37.5 16t15.5 38v320q0 22 -15.5 38t-37.5 16q-23 0 -38.5 -16t-15.5 -38v-320
q0 -22 15.5 -38t38.5 -16v0z" />
    <glyph glyph-name="tuichu1" unicode="&#xe624;" 
d="M837 50l168 168l-168 168v-117h-169v509q0 24 -12.5 40t-35.5 16l-452 -56q-23 0 -41.5 -16.5t-18.5 -39.5v-728q0 -22 24 -41t49 -19h487v224h169v-108zM623 -29h-480v767l480 58v-825zM478 296q37 0 63.5 26.5t26.5 63.5t-26.5 63.5t-63.5 26.5t-63 -26.5t-26 -63.5
t26 -63.5t63 -26.5zM842 463h50v208q0 23 -7.5 34.5t-27.5 11.5h-117v-51h102v-203zM724 -67h130q15 0 22 1t16.5 5.5t13 15t3.5 27.5h-185v-49zM478.5 347q16.5 0 28 11.5t11.5 27.5t-12 27.5t-28 11.5t-27.5 -11.5t-11.5 -27.5t11.5 -27.5t28 -11.5z" />
    <glyph glyph-name="tishi_cuowu" unicode="&#xe639;" 
d="M509.5 845q-93.5 0 -179 -36.5t-147 -98t-98 -147t-36.5 -179.5t36.5 -179t98 -147t147 -98.5t179 -36.5t179 36.5t147.5 98.5t98.5 147t36.5 179t-36.5 179.5t-98.5 147t-147.5 98t-179 36.5zM498 581q0 8 5.5 14t14.5 6h7q9 0 14.5 -6t5.5 -14v-291q0 -9 -6 -14.5
t-14 -5.5h-7q-9 0 -14.5 5.5t-5.5 14.5v291zM521.5 160q-13.5 0 -22.5 9t-9 22t9 22.5t22.5 9.5t22.5 -9.5t9 -22.5t-9 -22t-22.5 -9z" />
    <glyph glyph-name="jiaoshikebiao" unicode="&#xe60f;" 
d="M814 621h-285q-11 0 -18 7.5t-7 17.5t7 17t18 7h285q10 0 17.5 -7t7.5 -17t-7.5 -17.5t-17.5 -7.5zM820 466h-215q-8 0 -13 7t-5 17.5t5 17.5t13 7h215q8 0 13.5 -7t5.5 -17.5t-5.5 -17.5t-13.5 -7zM392 -113q32 0 54.5 21.5t22.5 51.5v3l300 286q6 5 6 13.5t-6 14
t-15 5.5t-15 -6l-270 -257v243q0 40 -27 70.5t-70 39.5l-41 8l-86 -164l-87 164l-41 -8q-42 -9 -69.5 -39.5t-27.5 -70.5v-302q0 -30 22.5 -51.5t54.5 -21.5h295zM248 622q-45 0 -77.5 -32t-32.5 -77.5t32.5 -78t77.5 -32.5t77.5 32.5t32.5 78t-32.5 77.5t-77.5 32z
M751 -113h-141q-12 0 -20 9t-8 20.5t8 20.5t20 9h141q81 0 137.5 61t56.5 143v489q0 81 -55.5 132.5t-138.5 51.5h-489q-60 1 -116 -35.5t-71 -99.5q-2 -11 -14.5 -17.5t-24.5 -4.5q-11 3 -16.5 13.5t-2.5 22.5q20 84 87.5 132.5t157.5 48.5h489q106 0 180 -70t74 -174v-489
q0 -106 -75 -184.5t-179 -78.5z" />
    <glyph glyph-name="daochuExcelbiaoge" unicode="&#xe61e;" 
d="M62 587v-498h498v498h-498zM379 196l-68 101l-68 -101h-85l111 164l-98 147h82l58 -85l59 85h82l-99 -147l111 -164h-85v0zM749 850h-427q-43 0 -73.5 -30.5t-30.5 -72.5v-125h37v125q0 27 19.5 46.5t47.5 19.5h394v-209h209v-585q0 -27 -19.5 -47t-46.5 -20h-604v75h-37
v-111h641q42 0 72.5 30t30.5 73v618zM753 640v155l154 -155h-154zM621 481h218v-37h-218v37zM621 356h218v-36h-218v36zM621 232h218v-37h-218v37z" />
    <glyph glyph-name="Group" unicode="&#xe60d;" 
d="M512 384zM0 384q0 -139 68.5 -257t186.5 -186.5t257 -68.5t257 68.5t186.5 186.5t68.5 257t-68.5 257t-186.5 186.5t-257 68.5t-257 -68.5t-186.5 -186.5t-68.5 -257zM519 691q-77 0 -132.5 -56t-55.5 -135t55.5 -135t132.5 -56t132.5 56t55.5 135t-55.5 135t-132.5 56z
M799 77q-5 73 -42.5 136t-94.5 99q-68 -51 -143 -51q-81 0 -144 51q-57 -36 -94 -99t-42 -136h560z" />
    <glyph glyph-name="dailituandui" unicode="&#xe640;" 
d="M979 585q-38 91 -108.5 161.5t-162.5 109.5q-95 40 -198.5 40t-198.5 -40q-91 -39 -161.5 -109.5t-109.5 -161.5q-40 -95 -40 -198.5t40 -198.5q39 -92 109.5 -162.5t161.5 -108.5q95 -40 198.5 -40t198.5 40q92 38 162.5 108.5t108.5 162.5q40 95 40 198.5t-40 198.5z
M510 -81q-95 0 -181.5 37t-149 99.5t-99.5 149t-37 181.5t37 181.5t99.5 149t149 99.5t181.5 37t181.5 -37t149 -99.5t99.5 -149t37 -181.5t-37 -181.5t-99.5 -149t-149 -99.5t-181.5 -37zM639 300q40 6 66 37t26 72q0 45 -32 77.5t-77 32.5q-13 0 -27 -4q-7 54 -49 90
t-98 36q-61 0 -104.5 -42.5t-43.5 -102.5q0 -54 35.5 -94t88.5 -49q-72 -10 -120.5 -73.5t-48.5 -147.5h387v0h122q0 64 -35.5 112t-89.5 56zM479 132h-61q0 64 36 112t89 56q-39 6 -65 37t-26 72q0 45 31.5 77.5t77.5 32.5q13 0 30 -5q-35 -11 -56.5 -40t-21.5 -65
q0 -41 26 -72t65 -37q-53 -8 -89 -56t-36 -112z" />
    <glyph glyph-name="signout" unicode="&#xe601;" 
d="M402 73q0 -2 0.5 -11t3 -15t-1.5 -13.5t-5.5 -11.5t-11.5 -4h-183q-68 0 -116.5 48.5t-48.5 116.5v402q0 68 48.5 116.5t116.5 48.5h183q7 0 12.5 -5.5t5.5 -13.5q0 -2 0.5 -11t3 -15t-1.5 -13.5t-6 -11t-12 -3.5h-183q-37 0 -64 -27t-27 -65v-402q0 -38 27 -65t64 -27
h179h6l7 -2l4 -3l4 -5l1 -8h-5zM933 384q0 -15 -11 -26l-311 -311q-11 -10 -26 -10t-25.5 10.5t-10.5 25.5v165h-256q-15 0 -26 10.5t-11 25.5v220q0 15 11 25.5t26 10.5h256v165q0 15 10.5 25.5t25.5 10.5t26 -10l311 -311q11 -11 11 -26z" />
    <glyph glyph-name="fanhui" unicode="&#xe607;" 
d="M533 -9l-393 393l393 393q9 9 9 22.5t-9.5 23t-23 9.5t-22.5 -9l-412 -412q-11 -11 -9 -26q-2 -16 9 -28l412 -412q9 -9 22.5 -9t23 9.5t9.5 23t-9 22.5z" />
    <glyph glyph-name="tuichu2" unicode="&#xe604;" 
d="M944 558q-23 42 -66.5 89.5t-82.5 74.5q-8 6 -19 6q-16 0 -26 -13q-6 -8 -6 -18v-5q3 -13 13 -20q34 -23 71.5 -64.5t57.5 -77.5t34.5 -91t14.5 -97v-1q0 -82 -32 -156t-92 -132t-137 -88.5t-162 -30.5t-162 30.5t-137 88.5t-92 132t-32 156v1q0 42 14.5 97t34.5 91
q19 36 57 77.5t71 64.5q11 7 14 20v5q0 10 -6 18q-10 13 -27 13q-10 0 -19 -6q-38 -26 -81.5 -74t-66.5 -89q-23 -43 -39 -106.5t-16 -111.5q0 -40 11 -93t27 -89q15 -36 45.5 -79.5t58.5 -70.5t73.5 -56t81.5 -44q38 -15 93.5 -26t96.5 -11t96.5 11t93.5 26
q36 14 81.5 43.5t73.5 56.5q27 27 58 70.5t46 78.5q16 37 27 90t11 93q0 48 -16 111.5t-39 105.5zM524 381q-16 0 -27.5 11t-11.5 27v440q0 15 11.5 26t27.5 11t27 -11t11 -26v-440q0 -16 -11 -27t-27 -11z" />
    <glyph glyph-name="morentouxiang" unicode="&#xe619;" 
d="M512 384zM0 384q0 -139 68.5 -257t186.5 -186.5t257 -68.5t257 68.5t186.5 186.5t68.5 257t-68.5 257t-186.5 186.5t-257 68.5t-257 -68.5t-186.5 -186.5t-68.5 -257zM711 76q-37 16 -45 23l-9 9q-18 18 -21 36v62q27 32 49 102q13 6 25 21.5t17 34.5q9 42 -8 63
q23 84 19.5 151.5t-31.5 105.5q-31 40 -84 40q-1 1 -8 10q-12 16 -30 23.5t-61 7.5h-6q-114 0 -170 -67q-72 -88 -40 -274q-15 -19 -7 -59q7 -40 36 -55q24 -70 54 -104q1 -58 0 -66q-3 -16 -19 -33q-14 -14 -53 -29q-110 -31 -155 -69l11 -10l6 -4q18 -15 28 -22q3 -3 8 -6
q17 -11 32 -21q1 0 2.5 -1t2.5 -2q21 -12 35 -19q1 0 1.5 -0.5l0.5 -0.5q20 -9 40 -17q2 -1 3 -1q15 -6 41 -13l1.5 -0.5l1.5 -0.5q20 -5 41 -9q1 -1 2.5 -1h2.5q23 -5 41 -6h5q29 -2 44 -2q24 0 43 2h5q29 3 41 6h2.5t2.5 1q21 4 41 9l1.5 0.5l1.5 0.5q28 8 41 13
q1 1 1.5 1h1.5q22 8 40 18h1v0q17 9 37 20l1.5 1t2.5 1q17 10 32 22q2 1 8 5q16 12 28 23q1 1 3 2t2 2l12 10q-48 37 -152 66z" />
    <glyph glyph-name="touxiang" unicode="&#xe602;" 
d="M1 384v0q0 -104 40.5 -199t109 -163.5t163 -109t198.5 -40.5t199 40.5t163.5 109t109 163.5t40.5 199v0v0q0 104 -40.5 199t-109 163.5t-163.5 109t-199 40.5t-198.5 -40.5t-163 -109t-109 -163.5t-40.5 -199v0zM750 49q-37 14 -84 23v0q-26 5 -55 9q-44 -12 -98.5 -12
t-99.5 12q-30 -4 -59 -10q1 0 5 -1q1 -1 2 -1q-1 0 -2 1q-4 1 -5 1q-44 -9 -79 -22q0 1 -15 -7.5t-36.5 -24t-35.5 -29.5q141 -116 324 -116t324 116q-14 14 -35.5 29.5t-36 24t-14.5 7.5v0zM737 452q-10 3 -21 -3q1 64 -18 111h-372q-19 -49 -18 -116q-11 7 -21 3
q-13 -5 -17 -27t4.5 -47.5t24.5 -39.5t30 -9q25 -80 70 -135q7 -10 15 -18v-90h-0.5h-0.5q45 -12 99.5 -12t98.5 12v0h-1v90q8 8 16 18q45 55 69 135l5 0.5t12 3.5t14 8t14 16t9 26q9 25 5.5 47t-17.5 27zM698 558q-2 -47 18 -115q2 5 4.5 14.5t8.5 36t9 51t0.5 54t-12 51
t-32 36t-56.5 14.5l-63 17q-181 36 -248 -50q-57 -73 -19 -230q3 -11 8 -20q19 28 57 46t82.5 26.5t89.5 16t87 20t66 32.5zM321 -38h93v-16h-93v16zM512 69q2 -4 7 -10.5t24 -19t43 -16.5q3 4 7.5 10.5t11.5 22t6 25.5zM512 69q-3 -4 -8 -10.5t-24 -19t-42 -16.5
q-3 4 -7.5 10.5t-11.5 22t-6 25.5zM502 42v0q0 -9 9.5 -9t9.5 9v0v0q0 10 -9.5 10t-9.5 -10v0zM502 7v0q0 -10 9.5 -10t9.5 10v0q0 9 -9.5 9t-9.5 -9zM502 -30v0q0 -9 9.5 -9t9.5 9v0q0 9 -9.5 9t-9.5 -9z" />
    <glyph glyph-name="VIP" unicode="&#xe633;" 
d="M940 413q20 19 20 46.5t-20 46.5q-6 6 -1 14q13 23 6 49.5t-31 40.5q-7 4 -5 12q7 26 -6.5 50t-39.5 31q-8 2 -8 10q0 28 -19.5 47t-46.5 19q-9 0 -11 8q-7 27 -31 40q-15 9 -33 9q-8 0 -17 -2h-3q-6 0 -9 5q-14 24 -40 31q-8 2 -17 2q-18 0 -33 -9q-3 -1 -6 -1
q-4 0 -7 3q-20 19 -47 19t-47 -19q-3 -3 -7 -3q-3 0 -6 1q-15 9 -33 9q-8 0 -17 -2q-26 -7 -40 -31q-3 -5 -9 -5h-3q-9 2 -17 2q-18 0 -33 -9q-24 -13 -31 -40q-2 -8 -11 -8v0q-27 0 -46 -19t-19 -47q0 -8 -9 -10q-26 -7 -39.5 -31t-6.5 -50q2 -8 -5 -12q-24 -14 -31 -40.5
t7 -49.5q4 -8 -2 -14q-20 -19 -20 -46.5t20 -46.5q6 -6 2 -13q-14 -24 -7 -50.5t31 -39.5q7 -4 5 -13q-7 -26 6.5 -49.5t39.5 -30.5q9 -2 9 -11q0 -27 19 -46.5t46 -19.5q9 0 11 -8q7 -26 31 -40q15 -9 33 -9q8 0 17 2q1 1 3 1q6 0 9 -6q14 -23 40 -30q9 -3 17 -3q18 0 33 9
q3 2 6 2q4 0 7 -4q20 -19 47 -19t47 19q3 4 7 4q3 0 6 -2q15 -9 33 -9q9 0 17 3q26 7 40 30q3 6 9 6q2 0 3 -1q9 -2 17 -2q18 0 33 9q24 14 31 40q2 8 11 8q27 0 46.5 19.5t19.5 46.5q0 9 8 11q26 7 39.5 30.5t6.5 49.5q-2 9 5 13q24 13 31 39.5t-6 50.5q-5 7 1 13z
M938 351.5q-6 -23.5 -27 -35.5q-12 -7 -9 -20q7 -24 -5.5 -45t-35.5 -27q-14 -4 -14 -18q0 -24 -17 -41.5t-41 -17.5q-14 0 -18 -13q-6 -24 -27 -36t-45 -6q-13 4 -20 -8q-12 -21 -35.5 -27.5t-44.5 5.5q-13 8 -22 -2q-18 -18 -42 -18t-41 18q-10 10 -22 2q-22 -12 -45 -5.5
t-36 27.5q-7 12 -20 8q-24 -6 -45 6t-27 36q-4 13 -18 13q-24 0 -41 17.5t-17 41.5q0 14 -14 18q-23 6 -35.5 27t-5.5 45q3 13 -9 20q-21 12 -27 35.5t6 44.5q7 12 -3 22q-17 17 -17 41.5t17 41.5q10 10 3 22q-12 21 -6 44.5t27 35.5q12 7 9 21q-7 23 5.5 44t35.5 28
q14 3 14 17q0 25 17 42t41 17q14 0 18 13q6 24 27 36t45 6q13 -4 20 8q13 21 36.5 27.5t44.5 -5.5q12 -7 22 3q17 17 41 17t42 -17q9 -10 22 -3q21 12 44.5 5.5t35.5 -27.5q7 -12 20 -8q24 6 45 -6t27 -36q4 -13 18 -13q24 0 41 -17t17 -42q0 -14 14 -17q23 -7 35.5 -28
t5.5 -44q-3 -14 9 -21q21 -12 27 -35.5t-6 -44.5q-7 -12 3 -22q17 -17 17 -41.5t-17 -41.5q-10 -10 -3 -22q12 -21 6 -44.5zM935 419q17 17 17 41.5t-17 41.5q-10 10 -3 22q12 21 6 44.5t-27 35.5q-12 7 -9 20q7 24 -5.5 45t-35.5 27q-14 4 -14 18q0 24 -17 41.5t-41 17.5
q-14 0 -18 13q-6 24 -27 36t-45 6q-13 -4 -20 8q-12 21 -35.5 27.5t-44.5 -5.5q-13 -7 -22 2q-18 18 -42 18t-41 -18q-10 -9 -22 -2q-21 12 -44.5 5.5t-36.5 -27.5q-7 -12 -20 -8q-24 6 -45 -6t-27 -36q-4 -13 -18 -13q-24 0 -41 -17.5t-17 -41.5q0 -14 -14 -18
q-23 -6 -35.5 -27t-5.5 -45q3 -13 -9 -20q-21 -12 -27 -35.5t6 -44.5q7 -12 -3 -22q-17 -17 -17 -41.5t17 -41.5q10 -10 3 -22q-12 -21 -6 -44.5t27 -35.5q12 -7 9 -21q-7 -23 5.5 -44t35.5 -28q14 -3 14 -17q0 -25 17 -42t41 -17q14 0 18 -13q6 -24 27 -36t45 -6
q13 4 20 -8q13 -21 36 -27.5t45 5.5q12 7 22 -3q17 -17 41 -17t42 17q9 10 22 3q21 -12 44.5 -5.5t35.5 27.5q7 12 20 8q24 -6 45 6t27 36q4 13 18 13q24 0 41 17t17 42q0 14 14 17q23 7 35.5 28t5.5 44q-3 14 9 21q21 12 27 35.5t-6 44.5q-7 12 3 22zM796 200
q-51 -51 -118.5 -79.5t-142.5 -28.5t-142.5 28.5t-118.5 79.5t-79.5 118t-28.5 142t28.5 142.5t79.5 118.5t118.5 79.5t142.5 28.5t142.5 -28.5t118.5 -79.5t79.5 -118.5t28.5 -142.5t-28.5 -142t-79.5 -118zM700.5 484.5q-11.5 -14.5 -11.5 -40.5q0 -24 11 -38.5
t30.5 -14.5t31.5 15t12 41q0 23 -11.5 37.5t-30.5 14.5q-20 0 -31.5 -14.5zM535 803q-70 0 -132.5 -26.5t-109.5 -74t-73.5 -110t-26.5 -132t26.5 -132t73.5 -110t109.5 -74t132.5 -26.5t132.5 26.5t110 74t73.5 110t26 132t-26 132t-73.5 110t-110 74t-132.5 26.5zM395 343
h-78l-76 203h75l43 -140l43 140h69zM566 343h-69v203h69v-203zM566 582h-69v57h69v-57zM820 522.5q25 -28.5 25 -76.5t-25 -78t-65 -30q-21 0 -37.5 8.5t-28.5 25.5v-111h-70v285h63v-39q11 22 30 33t42 11q41 0 66 -28.5zM912 160l-40 60q-4 -2 -9 -3q-8 -2 -8 -10
q0 -28 -19.5 -47t-46.5 -19q-9 0 -11 -8q-7 -27 -30 -41q-16 -8 -33 -8q-9 0 -17 2h-3q-7 0 -10 -5q-9 -16 -25 -25l20 -29l83 -143l93 106l139 27zM385 81q-3 5 -9 5h-3q-8 -2 -17 -2q-18 0 -33 8q-24 14 -31 41q-2 8 -10 8q-28 0 -47 19t-19 47q0 8 -8 10q-5 1 -10 4
l-40 -61l-82 -143l138 -27l93 -106l83 143l20 29q-16 9 -25 25z" />
    <glyph glyph-name="shousuo-copy" unicode="&#xe60b;" 
d="M911 143h-510q-19 0 -32 14t-13 33.5t13 34t32 14.5h510q19 0 32 -14.5t13 -34t-13 -33.5t-32 -14zM911 367h-510q-19 0 -32 14t-13 33.5t13 34t32 14.5h510q19 0 32 -14.5t13 -34t-13 -33.5t-32 -14zM908 583h-784q-20 0 -34 14t-14 33.5t14 34t34 14.5h784
q20 0 34 -14.5t14 -34t-14 -33.5t-34 -14zM300 143l-224 160l224 160v-320zM124 23h784q20 0 34 -14.5t14 -34t-14 -33.5t-34 -14h-784q-20 0 -34 14t-14 33.5t14 34t34 14.5z" />
    <glyph glyph-name="daorudaochu" unicode="&#xe616;" 
d="M917 834h-630q-20 0 -32.5 -12.5t-12.5 -32.5v-135h-135q-20 0 -32.5 -12.5t-12.5 -32.5v-630q0 -20 12.5 -32.5t32.5 -12.5h630q20 0 32.5 12.5t12.5 32.5v135h135q20 0 32.5 12.5t12.5 32.5v630q0 20 -12.5 32.5t-32.5 12.5zM917 182q0 -23 -23 -23h-112v225l-45 -45
v-337q0 -23 -23 -23h-584q-23 0 -23 23v584q0 23 23 23h337l45 45h-225v112q0 23 23 23h584q23 0 23 -23v-584zM701 600l-369 -374v180q0 23 -22.5 23t-22.5 -23v-224q0 -23 23 -23h224q23 0 23 22.5t-23 22.5h-162l365 364q7 7 7 16t-7 16q-22 14 -36 0z" />
    <glyph glyph-name="wodeyueke" unicode="&#xe6ab;" horiz-adv-x="1638" 
d="M1255 707v-71v-474q0 -4 0.5 -12t0.5 -14t-1 -10t-4 -8t-8 -10t-7 -8t-4.5 -5.5t-3.5 -5.5t-5 -11q-1 -1 -1.5 -1t-0.5 -1q-1 -3 -1 -4q-3 -3 -5 -19q-1 0 -1 -2v-1v-1q-2 -27 4 -43v-0.5v-0.5q0 -1 1 -1.5l1 -0.5q0 -1 0.5 -3.5t0.5 -3.5l1.5 -1t1.5 -2t0.5 -2.5
l0.5 -1.5q3 -5 8 -10q1 -2 2 -4.5t2 -3.5l1.5 -1t1.5 -2l3 -3t3 -2q0 -1 2.5 -3t3.5 -3q5 -10 3 -18q-1 -1 -2 -1.5t-1.5 -1t-0.5 -2t-1 -2.5l-2 -0.5t-2 -1t-0.5 -1t-1.5 -0.5t-4 -1h-1h-24h-577q-15 0 -47.5 -1t-59.5 -1t-47 2l-2 1q-20 2 -23 3l-0.5 0.5t-1.5 0.5l-4 2
h-0.5h-0.5q-1 0 -1.5 0.5l-0.5 0.5q-1 1 -5 2t-5 1l-1.5 1.5l-1.5 1.5q-1 1 -3.5 2.5t-3.5 1.5l-12 9q-1 1 -3.5 3t-3.5 3t-1 2.5t-0.5 2t-2.5 1.5t-2.5 1.5t-0.5 2t-0.5 2t-2 1.5t-2 1.5t-1 2.5l-0.5 2q-1 1 -4 6t-4 7q-1 4 -3 7q-5 17 -5 92v586q0 40 3 53q2 9 2 11
q1 0 0.5 1l-0.5 1q1 1 1.5 1h0.5q1 2 1 4v3l1.5 1.5l0.5 0.5q0 1 1 4.5t2 5.5l1 1.5t1.5 1.5t0.5 1.5v1.5l1 0.5t2 0.5q0 1 0.5 2.5t0.5 2.5q5 10 15 17l-0.5 1.5t0.5 1.5q1 2 3.5 4t5.5 4t5 4q1 0 1.5 1t1.5 2l6 4q1 1 2.5 2l1.5 1q1 0 2 0.5l1 0.5q25 15 50 18h2.5h3
t3.5 1h78q2 -1 5.5 -2.5t4.5 -2.5q3 -3 4 -8t1 -8.5v-12v-11.5v-647h38v519v130q0 33 4 38q1 1 9 4l1 1h467v-0.5v-0.5q21 -2 21 -3h4h1q1 0 1 -0.5v-0.5q13 -4 13 -5h1.5h1.5q13 -5 15 -7h1.5h1.5l2 -2q2 -2 4 -2q1 -1 1 -1.5v-0.5q5 -3 7 -4t8 -6q18 -16 26 -28l0.5 -1
t0.5 -2q1 0 2.5 -1.5l2.5 -2.5v-1v-1q0 -1 0.5 -1h0.5q7 -11 7 -15q1 -1 1.5 -1h0.5q1 -2 2 -5.5t1 -4.5t0.5 -2t0.5 -3l1 -0.5l1 -0.5q3 -12 4 -26l2 -2v0zM1220 630q0 6 0.5 23.5t0 29t-2.5 18.5v2v1q0 5 -3 15q-4 16 -11 29q-3 4 -5 7q0 1 -1 2t-2 1q-7 11 -17 19
q-27 22 -53 24q-1 0 -1 1v0h-50h-148v-280v-19v-25.5v-19.5q-1 -14 -15 -16q-8 -1 -17 7l-3.5 3.5t-0.5 2t-1 2.5q0 1 -2 2t-2 1.5t-0.5 1.5t-1.5 2q0 1 -2 2.5t-3 3.5q-1 0 -1 1.5t-0.5 2.5t-2.5 1.5t-2.5 1.5t-0.5 2.5t-1 1.5q0 1 -1 1.5t-1.5 0.5t0 1t-0.5 2t-3 2.5
l-2 1.5q-1 0 -0.5 1.5l0.5 1.5l-3 3l-3 3t-3 6l-1.5 0.5l-1.5 0.5q-1 1 -1 2.5t-0.5 2t-2 1.5t-2 1.5t-1 2t-0.5 2.5q-1 0 -2 0.5t-1.5 0.5t0 1.5l0.5 1.5l-3 3l-3 3t-3 6l-1.5 0.5l-1.5 0.5q0 1 -0.5 2.5t-1 2t-2 1.5t-2 1.5t-1.5 2.5t-2 3t-3 2q0 -1 -7 -10q0 -1 -1 -2.5
t-2 -2.5t-3 -2.5t-3 -3.5l-0.5 -1.5t-0.5 -2.5l-1.5 -0.5t-1.5 -1v-1.5v-1l-3 -3l-3 -3q0 -1 -3 -6l-1 -0.5t-2 -0.5q0 -1 -0.5 -2.5t-1 -2t-2 -1.5t-2 -1.5t-1 -2.5l-0.5 -2l-1.5 -0.5t-1.5 -1v-1.5v-1l-3 -3l-3 -3q-5 -7 -6 -8q0 -1 -2 -5q-1 -1 -2 -1.5l-1 -0.5
q-1 0 -1 -2t-0.5 -2.5t-2.5 -1.5t-2.5 -1.5t-0.5 -2t-0.5 -2l-1.5 -1.5t-2 -1q-8 -12 -13 -14q-11 -4 -19 3q-5 6 -5 30q-1 53 -0.5 165t0.5 161h-37q-2 0 -1 -4v-652h548v484v0v0zM1198 -36q2 0 0 3q-1 1 -5 7q-7 14 -7 16q0 1 -0.5 1t-0.5 1q-1 0 -1 3t-1 4.5t-3 0.5h-507
h-11h-11t-10 0.5t-9.5 1.5t-6.5 3t-4.5 5.5t-1.5 8.5q0 7 3 11t10 5.5t11.5 2t15.5 0t14 -0.5h504q0 12 3 25q1 2 1.5 6.5t1.5 7.5q1 2 2 4.5l1 2.5q1 2 1.5 5t1.5 4q0 1 1.5 2l1.5 1q0 1 0.5 2.5t0.5 2.5q4 6 5 7l0.5 1t0 1.5t-2.5 0.5h-673h-45q-1 0 -2.5 -1t-3.5 -1
q-1 0 -1 -0.5v-0.5q-3 -1 -5.5 -1t-3.5 -1l-1.5 -1t-1.5 -2q-1 0 -3.5 -1t-3.5 -1l-2 -2l-1.5 -1.5t-2 -0.5t-2.5 -1t-2 -3t-2 -3t-3 -2.5t-3 -2.5t-1 -2q-1 -1 -2 -1.5t-1 -1.5q-1 -1 -1 -2t-1 -2q0 -1 -1 -2t-2 -1q0 -2 -1 -5.5t-2 -4.5l-0.5 -0.5t-0.5 -1.5q-1 -3 -1 -7
q-1 -1 -2 -1v-1q-1 -7 0 -20t3 -15v-1v-1q1 -3 3 -5v-1.5v-1.5q1 -3 3 -4v-1.5v-1.5l1.5 -1t1.5 -2t0.5 -1h0.5q2 -3 4.5 -6l5 -6t3.5 -4q0 -1 1.5 -0.5t2 0t1 -1.5t1.5 -1t1 -1t1 -1q11 -7 17 -7q1 0 1.5 -1l0.5 -1q6 -1 43 -1h684zM887 516q1 0 1.5 -0.5t1.5 -0.5
q2 -2 2 1v286h-146q-2 0 -1 -4v-283q1 -1 3 1t2 3q0 2 2.5 3.5t2.5 2.5q0 2 2 3.5t2 2.5t2 3t2 3q1 1 5 4v1.5v1.5q0 1 2 2l2 1v1.5v1.5q1 0 2.5 1t2 1.5t0 1.5t0.5 2l1 1l2 2q1 2 7.5 9.5t9.5 11.5q1 2 3 3v2v1.5t1.5 0.5t1.5 1q1 1 2 3t2 3q4 2 7 2q1 1 2.5 1.5t2.5 0.5
q5 0 7 -3h1.5h1.5l0.5 -1.5t1.5 -1.5q2 -2 8 -10q3 -4 8.5 -11.5t7.5 -10.5q1 -1 3 -3.5t3 -3.5l2 -2l1 -1q1 -1 1.5 -3t1.5 -3l1.5 -0.5l1.5 -0.5q0 -1 0.5 -2.5t0.5 -2.5q1 -1 2.5 -2t2.5 -2q0 -1 0.5 -2t0.5 -1.5t1.5 -1.5l1.5 -1q6 -8 7 -12v0zM564 146v656
q-7 0 -35 0.5t-32 -1.5q0 -1 -12 -3q-1 -1 -2.5 -1.5l-1.5 -0.5q-2 0 -3 -1q0 -1 -1.5 -0.5t-1.5 0t-1 -1.5t-2 -1q-1 -1 -4.5 -2t-4.5 -1l-1 -1.5t-2 -1.5q-12 -10 -20 -19q-5 -6 -6 -7q-11 -15 -14 -34q-2 -7 -2 -41v-565q1 -1 3 1q2 0 6 5h1h1.5t1.5 1l2 2q9 7 23 11
q13 5 30 6t41.5 0.5t36.5 -0.5v0z" />
    <glyph glyph-name="E" unicode="&#xe621;" horiz-adv-x="1621" 
d="M863 -118h-294q-194 2 -298 99q-103 98 -103 266v681h696v-76h-443q-34 -5 -53 -18q-18 -14 -27 -40t-10.5 -66t-1.5 -97v-155h380v-91h-380v-183q0 -69 22 -115q21 -47 55 -75t77 -39q44 -12 87 -12h293v-79v0zM1220 747h89v-271h273v-90h-273v-271h-89v271h-272v90h272
v271z" />
  </font>
</defs>
</svg>
